<svg viewBox="0 0 49 48" fill="none" xmlns="http://www.w3.org/2000/svg">
<path fill-rule="evenodd" clip-rule="evenodd" d="M9.65006 7C19.6034 13.6634 21.7629 18.3551 21.7629 18.3551H26.5526C26.5526 18.3551 28.8131 13.6226 38.666 7C42.7587 10.8592 45.3153 16.3311 45.3153 22.3945C45.3153 34.0721 35.8349 43.5524 24.1577 43.5524C12.4804 43.5524 3 34.0721 3 22.3945C3 16.3311 5.55665 10.8592 9.65006 7Z" fill="url(#paint0_radial_58_813)"/>
<path fill-rule="evenodd" clip-rule="evenodd" d="M9.64978 7H9.65006C19.6034 13.6634 21.7629 18.3551 21.7629 18.3551H26.5526C26.5526 18.3551 28.8131 13.6226 38.6655 7.00144C36.731 10.6973 33.3062 17.055 34.2451 25.1171C34.2451 25.1171 28.5716 29.7383 25.9829 43.475C25.3823 43.5257 24.773 43.5524 24.1577 43.5524C23.5446 43.5524 22.9377 43.5257 22.3371 43.475C19.7492 29.7383 14.0701 25.1157 14.0701 25.1157C15.2934 16.5536 11.5854 10.7198 9.64978 7Z" fill="url(#paint1_linear_58_813)"/>
<path fill-rule="evenodd" clip-rule="evenodd" d="M31.4759 34.3086C30.7212 35.6996 30.3252 37.1075 30.1262 38.0278C30.0798 38.2667 30.156 38.5128 30.3285 38.6833C30.5011 38.8552 30.7464 38.9291 30.9857 38.8819C32.7879 38.5209 36.3794 37.5853 37.2679 35.796C38.6758 32.9611 37.4126 31.1181 36.7579 30.4201C36.561 30.22 36.2671 30.1491 36.0017 30.2381C35.1408 30.534 34.399 30.9653 33.7625 31.4802C34.5895 32.215 34.7924 33.3711 34.202 34.1284C33.5998 34.8976 32.3951 34.9712 31.4759 34.3086Z" fill="url(#paint2_linear_58_813)"/>
<path fill-rule="evenodd" clip-rule="evenodd" d="M16.8396 34.3086C17.5943 35.6996 17.9903 37.1075 18.1893 38.0278C18.2357 38.2667 18.1595 38.5128 17.987 38.6833C17.8144 38.8552 17.5691 38.9291 17.3298 38.8819C15.5276 38.5209 11.9361 37.5853 11.0475 35.796C9.63972 32.9611 10.9029 31.1181 11.5576 30.4201C11.7545 30.22 12.0484 30.1491 12.3138 30.2381C13.1747 30.534 13.9165 30.9653 14.553 31.4802C13.7259 32.215 13.5231 33.3711 14.1134 34.1284C14.7157 34.8976 15.9204 34.9712 16.8396 34.3086Z" fill="url(#paint3_linear_58_813)"/>
<defs>
<radialGradient id="paint0_radial_58_813" cx="0" cy="0" r="1" gradientUnits="userSpaceOnUse" gradientTransform="translate(24.1577 43.5525) rotate(-90) scale(36.5526)">
<stop stop-color="#FFFEF9"/>
<stop offset="0.53" stop-color="#EFE7F9"/>
<stop offset="1" stop-color="#B899F7"/>
</radialGradient>
<linearGradient id="paint1_linear_58_813" x1="24.1577" y1="6.92535" x2="24.1577" y2="43.4779" gradientUnits="userSpaceOnUse">
<stop stop-color="#9754EF"/>
<stop offset="0.55" stop-color="#8D48F2"/>
<stop offset="1" stop-color="#6A19FF"/>
</linearGradient>
<linearGradient id="paint2_linear_58_813" x1="32.9237" y1="39.3005" x2="33.3898" y2="30.4786" gradientUnits="userSpaceOnUse">
<stop stop-color="#6A19FF"/>
<stop offset="1" stop-color="#9754EF"/>
</linearGradient>
<linearGradient id="paint3_linear_58_813" x1="15.3918" y1="39.3005" x2="14.9257" y2="30.4786" gradientUnits="userSpaceOnUse">
<stop stop-color="#6A19FF"/>
<stop offset="1" stop-color="#9754EF"/>
</linearGradient>
</defs>
</svg>
