<svg viewBox="0 0 25 24" fill="none" xmlns="http://www.w3.org/2000/svg">
<path d="M20.4832 4.50748C18.9943 3.80324 17.4024 3.29141 15.7381 3C15.5337 3.3736 15.2949 3.87609 15.1303 4.27584C13.3611 4.00685 11.6081 4.00685 9.87143 4.27584C9.70683 3.87609 9.46257 3.3736 9.25639 3C7.59027 3.29141 5.99651 3.80511 4.50769 4.51121C1.5047 9.09901 0.690639 13.5729 1.09767 17.9832C3.08941 19.487 5.01964 20.4004 6.9173 20.9981C7.38584 20.3462 7.80373 19.6532 8.16373 18.9228C7.47811 18.6594 6.82143 18.3344 6.20093 17.957C6.36555 17.8338 6.52656 17.7049 6.68213 17.5723C10.4666 19.3618 14.5785 19.3618 18.3178 17.5723C18.4751 17.7049 18.6362 17.8338 18.799 17.957C18.1767 18.3362 17.5182 18.6613 16.8326 18.9247C17.1926 19.6532 17.6086 20.3481 18.079 21C19.9784 20.4023 21.9105 19.4888 23.9022 17.9832C24.3799 12.8705 23.0864 8.43773 20.4832 4.50748ZM8.67929 15.2709C7.54323 15.2709 6.61158 14.1986 6.61158 12.893C6.61158 11.5872 7.52333 10.5131 8.67929 10.5131C9.83528 10.5131 10.7669 11.5853 10.747 12.893C10.7488 14.1986 9.83528 15.2709 8.67929 15.2709ZM16.3207 15.2709C15.1846 15.2709 14.2529 14.1986 14.2529 12.893C14.2529 11.5872 15.1647 10.5131 16.3207 10.5131C17.4766 10.5131 18.4082 11.5853 18.3883 12.893C18.3883 14.1986 17.4766 15.2709 16.3207 15.2709Z" fill="white" fill-opacity="0.6"/>
</svg>
