<svg viewBox="0 0 25 24" fill="none" xmlns="http://www.w3.org/2000/svg">
<path fill-rule="evenodd" clip-rule="evenodd" d="M12.5 1C6.14625 1 1 6.04701 1 12.2782C1 17.2688 4.29187 21.4841 8.86312 22.9785C9.43812 23.0771 9.65375 22.7388 9.65375 22.4427C9.65375 22.1749 9.63938 21.2867 9.63938 20.3422C6.75 20.8638 6.0025 19.6514 5.7725 19.017C5.64313 18.6927 5.0825 17.6918 4.59375 17.4239C4.19125 17.2125 3.61625 16.6908 4.57938 16.6767C5.485 16.6626 6.13188 17.4944 6.3475 17.8328C7.3825 19.5386 9.03563 19.0593 9.69688 18.7632C9.7975 18.0301 10.0994 17.5367 10.43 17.2548C7.87125 16.9728 5.1975 16 5.1975 11.6861C5.1975 10.4596 5.64313 9.44458 6.37625 8.6551C6.26125 8.37314 5.85875 7.21712 6.49125 5.66637C6.49125 5.66637 7.45437 5.37032 9.65375 6.82239C10.5737 6.56863 11.5513 6.44175 12.5288 6.44175C13.5063 6.44175 14.4838 6.56863 15.4038 6.82239C17.6031 5.35622 18.5662 5.66637 18.5662 5.66637C19.1987 7.21712 18.7962 8.37314 18.6812 8.6551C19.4144 9.44458 19.86 10.4455 19.86 11.6861C19.86 16.0141 17.1719 16.9728 14.6131 17.2548C15.03 17.6072 15.3894 18.2839 15.3894 19.3412C15.3894 20.8497 15.375 22.0621 15.375 22.4427C15.375 22.7388 15.5906 23.0912 16.1656 22.9785C20.7081 21.4841 24 17.2548 24 12.2782C24 6.04701 18.8538 1 12.5 1Z" fill="white" fill-opacity="0.6"/>
</svg>
