<svg viewBox="0 0 25 24" fill="none" xmlns="http://www.w3.org/2000/svg">
<path fill-rule="evenodd" clip-rule="evenodd" d="M7.79295 1.77134C10.7581 0.0484412 14.4028 0.0785547 17.3402 1.85022C20.2487 3.65797 22.0164 6.88428 21.9999 10.3549C21.9322 13.8027 20.0367 17.0437 17.6674 19.5491C16.2999 21.0017 14.77 22.2861 13.1092 23.3762C12.9382 23.4751 12.761 23.5413 12.5666 23.5716C12.3794 23.5636 12.187 23.5083 12.0261 23.4107C9.49047 21.7728 7.26598 19.682 5.45961 17.239C3.94809 15.1998 3.08935 12.7361 3 10.1825C2.99804 6.70523 4.82776 3.49424 7.79295 1.77134ZM9.50688 11.6218C10.0057 12.8515 11.183 13.6535 12.4891 13.6536C13.3448 13.6597 14.1674 13.317 14.7735 12.7017C15.3796 12.0864 15.719 11.2498 15.716 10.3781C15.7205 9.04764 14.9372 7.84558 13.7318 7.3332C12.5264 6.82083 11.1367 7.0992 10.2115 8.03834C9.28625 8.97749 9.0081 10.3922 9.50688 11.6218Z" fill="white" fill-opacity="0.6"/>
</svg>
